<svg id="Layer_1" data-name="Layer 1" xmlns="http://www.w3.org/2000/svg" xmlns:xlink="http://www.w3.org/1999/xlink" viewBox="0 0 100 28.21">
  <defs>
    <style>
      .cls-1 {
        fill: #20aa4d;
      }

      .cls-2 {
        fill: url(#linear-gradient);
      }
    </style>
    <linearGradient id="linear-gradient" x1="70.51" y1="5.77" x2="100" y2="5.77" gradientUnits="userSpaceOnUse">
      <stop offset="0.01" stop-color="#00a7e3"/>
      <stop offset="0.34" stop-color="#009edc"/>
      <stop offset="0.87" stop-color="#0085c9"/>
      <stop offset="1" stop-color="#007ec4"/>
    </linearGradient>
  </defs>
  <title>mir-logo</title>
  <path class="cls-1" d="M55.68,3,49.36,16.67h-.64V0h-9V28.21h7.62a5.15,5.15,0,0,0,4.66-3l6.31-13.69H59V28.21h9V0H60.33a5.11,5.11,0,0,0-4.65,3"/>
  <path class="cls-1" d="M22,3.71l-3.74,13h-.64l-3.74-13A5.12,5.12,0,0,0,9,0H0V28.21H9V11.54h.65l5.12,16.67h6.41l5.13-16.67h.64V28.21h9V0h-9A5.12,5.12,0,0,0,22,3.71"/>
  <path class="cls-1" d="M71.79,12.82V28.21h9v-9h9.63a9.61,9.61,0,0,0,9.06-6.41Z"/>
  <path class="cls-2" d="M90.38,0H70.51A14.11,14.11,0,0,0,84.38,11.54H99.81A10.16,10.16,0,0,0,100,9.62,9.62,9.62,0,0,0,90.38,0"/>
</svg>
